<svg xmlns="http://www.w3.org/2000/svg" width="320" height="200" viewBox="0 0 320 200" role="img" aria-labelledby="title desc">
  <title id="title">Soldier defending a castle with the AWS cloud inside the walls</title>
  <desc id="desc">A clear illustrated scene of a soldier guarding a stone castle while an AWS cloud sits safely inside the castle walls.</desc>
  <defs>
    <linearGradient id="sky" x1="0" y1="0" x2="0" y2="1">
      <stop offset="0%" stop-color="#8fd3ff"/>
      <stop offset="62%" stop-color="#dff4ff"/>
      <stop offset="100%" stop-color="#f5fbff"/>
    </linearGradient>
    <linearGradient id="ground" x1="0" y1="0" x2="0" y2="1">
      <stop offset="0%" stop-color="#71bf55"/>
      <stop offset="100%" stop-color="#468a2a"/>
    </linearGradient>
    <linearGradient id="stone" x1="0" y1="0" x2="0" y2="1">
      <stop offset="0%" stop-color="#d9dee6"/>
      <stop offset="100%" stop-color="#8d97a6"/>
    </linearGradient>
    <linearGradient id="towerStone" x1="0" y1="0" x2="0" y2="1">
      <stop offset="0%" stop-color="#eef2f6"/>
      <stop offset="100%" stop-color="#a5afbb"/>
    </linearGradient>
    <linearGradient id="shield" x1="0" y1="0" x2="1" y2="1">
      <stop offset="0%" stop-color="#eb5d4c"/>
      <stop offset="100%" stop-color="#b52328"/>
    </linearGradient>
    <filter id="shadow" x="-20%" y="-20%" width="140%" height="160%">
      <feDropShadow dx="0" dy="3" stdDeviation="3" flood-color="#1d2e3b" flood-opacity="0.22"/>
    </filter>
  </defs>

  <rect width="320" height="200" fill="url(#sky)"/>
  <circle cx="56" cy="42" r="20" fill="#fff4b8"/>
  <g fill="#ffffff" opacity="0.85">
    <ellipse cx="82" cy="38" rx="20" ry="11"/>
    <ellipse cx="104" cy="36" rx="15" ry="9"/>
    <ellipse cx="94" cy="31" rx="14" ry="8"/>
    <ellipse cx="241" cy="34" rx="16" ry="10"/>
    <ellipse cx="258" cy="33" rx="12" ry="8"/>
    <ellipse cx="249" cy="28" rx="11" ry="7"/>
  </g>

  <path d="M0 141 C45 132 92 130 136 137 S230 149 320 134 V200 H0 Z" fill="url(#ground)"/>
  <path d="M0 162 C49 154 95 151 140 158 S236 170 320 155 V200 H0 Z" fill="#85562e"/>
  <path d="M0 168 C55 160 103 159 151 165 S238 178 320 163 V200 H0 Z" fill="#64401f" opacity="0.55"/>

  <g filter="url(#shadow)">
    <rect x="84" y="64" width="152" height="70" rx="7" fill="url(#stone)" stroke="#697586" stroke-width="3"/>
    <rect x="74" y="54" width="40" height="88" rx="8" fill="url(#towerStone)" stroke="#697586" stroke-width="3"/>
    <rect x="206" y="54" width="40" height="88" rx="8" fill="url(#towerStone)" stroke="#697586" stroke-width="3"/>

    <g fill="#d9e1e8" stroke="#697586" stroke-width="3">
      <rect x="82" y="47" width="12" height="18"/>
      <rect x="100" y="47" width="12" height="18"/>
      <rect x="118" y="57" width="12" height="10"/>
      <rect x="134" y="57" width="12" height="10"/>
      <rect x="150" y="57" width="12" height="10"/>
      <rect x="166" y="57" width="12" height="10"/>
      <rect x="182" y="57" width="12" height="10"/>
      <rect x="208" y="47" width="12" height="18"/>
      <rect x="226" y="47" width="12" height="18"/>
    </g>

    <g stroke="#7a8594" stroke-width="2" opacity="0.55">
      <path d="M97 67v64"/>
      <path d="M122 67v64"/>
      <path d="M147 67v64"/>
      <path d="M172 67v64"/>
      <path d="M197 67v64"/>
      <path d="M221 67v64"/>
      <path d="M86 88h148"/>
      <path d="M86 110h148"/>
    </g>

    <path d="M140 92 h40 a6 6 0 0 1 6 6 v36 h-52 v-36 a6 6 0 0 1 6 -6z" fill="#654127" stroke="#4b2d18" stroke-width="3"/>
    <path d="M134 134 h52 v8 a8 8 0 0 1 -8 8 h-36 a8 8 0 0 1 -8 -8z" fill="#4b2d18" opacity="0.35"/>

    <g fill="#7bc8ff" stroke="#5b728d" stroke-width="3">
      <rect x="93" y="79" width="18" height="16" rx="3"/>
      <rect x="209" y="79" width="18" height="16" rx="3"/>
    </g>
  </g>

  <g filter="url(#shadow)">
    <path d="M137 89c0-12 11-21 24-21 7 0 12 2 16 6 4-5 10-8 17-8 12 0 22 9 22 21 9 1 16 8 16 17 0 10-9 18-20 18h-76c-11 0-20-8-20-18 0-8 5-14 12-16 2 1 5 1 9 1z" fill="#f8fcff" stroke="#4d8ac7" stroke-width="4"/>
    <text x="174" y="103" text-anchor="middle" font-family="Verdana, Arial, sans-serif" font-size="17" font-weight="700" fill="#ff9900">AWS</text>
    <path d="M151 110c15 8 34 8 48 0" fill="none" stroke="#ff9900" stroke-width="4" stroke-linecap="round"/>
  </g>

  <g filter="url(#shadow)">
    <ellipse cx="63" cy="162" rx="24" ry="8" fill="#1f2b38" opacity="0.2"/>
    <path d="M59 100c11 0 19 8 19 19v27c0 12-8 18-19 18s-19-6-19-18v-27c0-11 8-19 19-19z" fill="#2c5fa6" stroke="#183663" stroke-width="3"/>
    <circle cx="59" cy="92" r="14" fill="#f2c29a" stroke="#7d553f" stroke-width="2"/>
    <path d="M47 90c2-11 9-17 17-17 8 0 15 6 17 17-7-5-11-7-17-7s-10 2-17 7z" fill="#8b4f24"/>
    <circle cx="54" cy="92" r="1.6" fill="#1b1b1b"/>
    <circle cx="64" cy="92" r="1.6" fill="#1b1b1b"/>
    <path d="M55 99c3 2 6 2 9 0" fill="none" stroke="#935c44" stroke-width="2" stroke-linecap="round"/>

    <path d="M74 118c7 4 12 10 15 20-1 13-10 17-20 15-3-12-1-24 5-35z" fill="url(#shield)" stroke="#7e1722" stroke-width="3"/>
    <circle cx="80" cy="132" r="4" fill="#ffe2a0" stroke="#c89034" stroke-width="2"/>
    <path d="M39 117c-10 7-15 18-16 31" fill="none" stroke="#d5dbe3" stroke-width="7" stroke-linecap="round"/>
    <path d="M23 148l2 11" fill="none" stroke="#5b3e24" stroke-width="4" stroke-linecap="round"/>
    <path d="M39 104V70" fill="none" stroke="#d7dde6" stroke-width="4" stroke-linecap="round"/>
    <path d="M39 69l9 13h-18z" fill="#c9d0db" stroke="#7f8995" stroke-width="2"/>
    <path d="M48 115c-6 5-9 10-11 17" fill="none" stroke="#264976" stroke-width="4" stroke-linecap="round"/>
    <path d="M66 115c4 9 6 16 6 28" fill="none" stroke="#264976" stroke-width="4" stroke-linecap="round"/>
    <path d="M49 160l-2 21" fill="none" stroke="#5b3e24" stroke-width="5" stroke-linecap="round"/>
    <path d="M69 160l3 21" fill="none" stroke="#5b3e24" stroke-width="5" stroke-linecap="round"/>
  </g>

  <g opacity="0.3" fill="#ffffff">
    <circle cx="120" cy="158" r="2"/>
    <circle cx="145" cy="168" r="1.5"/>
    <circle cx="193" cy="159" r="2"/>
    <circle cx="228" cy="150" r="1.5"/>
  </g>
</svg>
